<svg xmlns="http://www.w3.org/2000/svg" width="1264.98" height="1264.313" viewBox="0 0 421.66 421.438"><g stroke-linecap="round"><path fill="#fff9db" d="M10 10h401.66v401.44H10"/><path fill="none" stroke="#fff9db" stroke-width="4" d="M10 10h401.66M10 10h401.66m0 0v401.44m0-401.44v401.44m0 0H10m401.66 0H10m0 0V10m0 401.44V10"/></g><g stroke-linecap="round"><path fill="#b71c1c" d="M305.44 132.453c0 3.03-.15 6.08-.45 9.1-.31 3.01-.76 6.03-1.37 9.01-.6 2.97-1.36 5.93-2.25 8.83-.9 2.9-1.95 5.78-3.13 8.58s-2.51 5.56-3.97 8.23a95.988 95.988 0 0 1-4.77 7.82 93.41 93.41 0 0 1-11.77 14.06 92.79 92.79 0 0 1-6.88 6.12 94.543 94.543 0 0 1-7.46 5.42 93.274 93.274 0 0 1-7.96 4.69 96.553 96.553 0 0 1-8.39 3.89 96.46 96.46 0 0 1-8.75 3.07c-2.95.88-5.97 1.62-9 2.21-3.03.6-6.11 1.04-9.19 1.34a95.566 95.566 0 0 1-18.54 0c-3.08-.3-6.16-.74-9.19-1.34-3.03-.59-6.05-1.33-9-2.21a96.46 96.46 0 0 1-8.75-3.07 96.553 96.553 0 0 1-8.39-3.89c-2.72-1.43-5.39-3-7.96-4.69-2.57-1.68-5.07-3.5-7.46-5.42a92.79 92.79 0 0 1-6.88-6.12c-2.19-2.14-4.27-4.4-6.23-6.75a91.115 91.115 0 0 1-5.54-7.31 95.988 95.988 0 0 1-4.77-7.82 90.222 90.222 0 0 1-3.97-8.23c-1.18-2.8-2.23-5.68-3.13-8.58-.89-2.9-1.65-5.86-2.25-8.83-.61-2.98-1.06-6-1.36-9.01-.31-3.02-.46-6.07-.46-9.1 0-3.03.15-6.08.46-9.1.3-3.02.75-6.03 1.36-9.01.6-2.97 1.36-5.93 2.25-8.84.9-2.9 1.95-5.77 3.13-8.57 1.18-2.8 2.51-5.56 3.97-8.24a95.81 95.81 0 0 1 4.77-7.81c1.72-2.52 3.57-4.97 5.54-7.31 1.96-2.35 4.04-4.61 6.23-6.75a92.79 92.79 0 0 1 6.88-6.12c2.39-1.92 4.89-3.74 7.46-5.43 2.57-1.68 5.24-3.25 7.96-4.68 2.73-1.43 5.54-2.73 8.39-3.89 2.86-1.17 5.79-2.19 8.75-3.07a98.48 98.48 0 0 1 9-2.22 94.58 94.58 0 0 1 9.19-1.33 95.566 95.566 0 0 1 18.54 0c3.08.29 6.16.74 9.19 1.33 3.03.6 6.05 1.34 9 2.22 2.96.88 5.89 1.9 8.75 3.07 2.85 1.16 5.66 2.46 8.39 3.89 2.73 1.43 5.39 3 7.96 4.68 2.57 1.69 5.07 3.51 7.46 5.43a92.79 92.79 0 0 1 6.88 6.12 93.41 93.41 0 0 1 11.77 14.06 95.81 95.81 0 0 1 4.77 7.81c1.46 2.68 2.79 5.44 3.97 8.24 1.18 2.8 2.23 5.67 3.13 8.57a93.81 93.81 0 0 1 2.25 8.84c.61 2.98 1.06 5.99 1.37 9.01.3 3.02.37 7.58.45 9.1.08 1.52.08-1.52 0 0"/><path fill="none" stroke="transparent" d="M305.44 132.453c0 3.03-.15 6.08-.45 9.1-.31 3.01-.76 6.03-1.37 9.01-.6 2.97-1.36 5.93-2.25 8.83-.9 2.9-1.95 5.78-3.13 8.58s-2.51 5.56-3.97 8.23a95.988 95.988 0 0 1-4.77 7.82 93.41 93.41 0 0 1-11.77 14.06 92.79 92.79 0 0 1-6.88 6.12 94.543 94.543 0 0 1-7.46 5.42 93.274 93.274 0 0 1-7.96 4.69 96.553 96.553 0 0 1-8.39 3.89 96.46 96.46 0 0 1-8.75 3.07c-2.95.88-5.97 1.62-9 2.21-3.03.6-6.11 1.04-9.19 1.34a95.566 95.566 0 0 1-18.54 0c-3.08-.3-6.16-.74-9.19-1.34-3.03-.59-6.05-1.33-9-2.21a96.46 96.46 0 0 1-8.75-3.07 96.553 96.553 0 0 1-8.39-3.89c-2.72-1.43-5.39-3-7.96-4.69-2.57-1.68-5.07-3.5-7.46-5.42a92.79 92.79 0 0 1-6.88-6.12c-2.19-2.14-4.27-4.4-6.23-6.75a91.115 91.115 0 0 1-5.54-7.31 95.988 95.988 0 0 1-4.77-7.82 90.222 90.222 0 0 1-3.97-8.23c-1.18-2.8-2.23-5.68-3.13-8.58-.89-2.9-1.65-5.86-2.25-8.83-.61-2.98-1.06-6-1.36-9.01-.31-3.02-.46-6.07-.46-9.1 0-3.03.15-6.08.46-9.1.3-3.02.75-6.03 1.36-9.01.6-2.97 1.36-5.93 2.25-8.84.9-2.9 1.95-5.77 3.13-8.57 1.18-2.8 2.51-5.56 3.97-8.24a95.81 95.81 0 0 1 4.77-7.81c1.72-2.52 3.57-4.97 5.54-7.31 1.96-2.35 4.04-4.61 6.23-6.75a92.79 92.79 0 0 1 6.88-6.12c2.39-1.92 4.89-3.74 7.46-5.43 2.57-1.68 5.24-3.25 7.96-4.68 2.73-1.43 5.54-2.73 8.39-3.89 2.86-1.17 5.79-2.19 8.75-3.07a98.48 98.48 0 0 1 9-2.22 94.58 94.58 0 0 1 9.19-1.33 95.566 95.566 0 0 1 18.54 0c3.08.29 6.16.74 9.19 1.33 3.03.6 6.05 1.34 9 2.22 2.96.88 5.89 1.9 8.75 3.07 2.85 1.16 5.66 2.46 8.39 3.89 2.73 1.43 5.39 3 7.96 4.68 2.57 1.69 5.07 3.51 7.46 5.43a92.79 92.79 0 0 1 6.88 6.12 93.41 93.41 0 0 1 11.77 14.06 95.81 95.81 0 0 1 4.77 7.81c1.46 2.68 2.79 5.44 3.97 8.24 1.18 2.8 2.23 5.67 3.13 8.57a93.81 93.81 0 0 1 2.25 8.84c.61 2.98 1.06 5.99 1.37 9.01.3 3.02.37 7.58.45 9.1.08 1.52.08-1.52 0 0"/></g><g stroke-linecap="round"><path fill="#b71c1c" d="M184.608 215.928h56.91v130.61h-56.91"/><path fill="none" stroke="transparent" d="M184.608 215.928h56.91m-56.91 0h56.91m0 0v130.61m0-130.61v130.61m0 0h-56.91m56.91 0h-56.91m0 0v-130.61m0 130.61v-130.61"/></g><g stroke-linecap="round"><path fill="#b71c1c" fill-rule="evenodd" d="m187.568 289.793 34.4 37-34.4 35.41-35-35.41"/><path fill="none" stroke="transparent" d="M187.568 289.793c7.62 8.19 15.23 16.39 34.4 37m-34.4-37c8.78 9.44 17.55 18.88 34.4 37m0 0c-9.09 9.35-18.17 18.7-34.4 35.41m34.4-35.41c-6.97 7.18-13.94 14.35-34.4 35.41m0 0c-7.98-8.07-15.95-16.14-35-35.41m35 35.41c-10.31-10.43-20.61-20.85-35-35.41m0 0 35-37m-35 37c8.47-8.95 16.93-17.9 35-37"/></g><g stroke-linecap="round"><path fill="#b71c1c" fill-rule="evenodd" d="m184.338 220.109 31.37 37-31.37 35.4-33-35.4"/><path fill="none" stroke="transparent" d="M184.338 220.109c6.49 7.65 12.98 15.31 31.37 37m-31.37-37c11.78 13.89 23.56 27.78 31.37 37m0 0-31.37 35.4m31.37-35.4c-6.4 7.22-12.8 14.44-31.37 35.4m0 0c-12.4-13.3-24.8-26.6-33-35.4m33 35.4c-9.16-9.83-18.32-19.65-33-35.4m0 0c8.85-9.92 17.7-19.84 33-37m-33 37c10.19-11.42 20.38-22.84 33-37"/></g><g stroke-linecap="round"><path fill="#fff9db" d="M257.891 131.967c0 2.23-.16 4.49-.48 6.7a47.095 47.095 0 0 1-3.78 12.84c-.92 2.03-2.01 4.01-3.21 5.89a45.872 45.872 0 0 1-4.03 5.37 47.233 47.233 0 0 1-4.74 4.75c-1.69 1.46-3.5 2.81-5.38 4.02-1.88 1.2-3.86 2.29-5.89 3.21a47.095 47.095 0 0 1-12.85 3.78c-2.21.31-4.47.47-6.7.47-2.23 0-4.49-.16-6.7-.47a47.095 47.095 0 0 1-12.85-3.78c-2.03-.92-4.02-2.01-5.89-3.21a47.941 47.941 0 0 1-5.38-4.02 46.933 46.933 0 0 1-8.77-10.12 47.347 47.347 0 0 1-3.22-5.89 47.523 47.523 0 0 1-3.77-12.84 46.97 46.97 0 0 1 1.43-19.95c.63-2.14 1.42-4.26 2.34-6.29.93-2.03 2.01-4.01 3.22-5.89 1.21-1.87 2.56-3.68 4.02-5.37 1.47-1.68 3.06-3.28 4.75-4.74 1.69-1.46 3.5-2.82 5.38-4.02a46.644 46.644 0 0 1 12.18-5.56 46.97 46.97 0 0 1 26.52 0c2.14.62 4.26 1.41 6.29 2.34 2.03.93 4.01 2.01 5.89 3.22 1.88 1.2 3.69 2.56 5.38 4.02a48.2 48.2 0 0 1 4.74 4.74 47.61 47.61 0 0 1 4.03 5.37c1.2 1.88 2.29 3.86 3.21 5.89a47.095 47.095 0 0 1 3.78 12.85c.32 2.21.4 5.58.48 6.69.08 1.12.08-1.11 0 0"/><path fill="none" stroke="transparent" d="M257.891 131.967c0 2.23-.16 4.49-.48 6.7a47.095 47.095 0 0 1-3.78 12.84c-.92 2.03-2.01 4.01-3.21 5.89a45.872 45.872 0 0 1-4.03 5.37 47.233 47.233 0 0 1-4.74 4.75c-1.69 1.46-3.5 2.81-5.38 4.02-1.88 1.2-3.86 2.29-5.89 3.21a47.095 47.095 0 0 1-12.85 3.78c-2.21.31-4.47.47-6.7.47-2.23 0-4.49-.16-6.7-.47a47.095 47.095 0 0 1-12.85-3.78c-2.03-.92-4.02-2.01-5.89-3.21a47.941 47.941 0 0 1-5.38-4.02 46.933 46.933 0 0 1-8.77-10.12 47.347 47.347 0 0 1-3.22-5.89 47.523 47.523 0 0 1-3.77-12.84 46.97 46.97 0 0 1 1.43-19.95c.63-2.14 1.42-4.26 2.34-6.29.93-2.03 2.01-4.01 3.22-5.89 1.21-1.87 2.56-3.68 4.02-5.37 1.47-1.68 3.06-3.28 4.75-4.74 1.69-1.46 3.5-2.82 5.38-4.02a46.644 46.644 0 0 1 12.18-5.56 46.97 46.97 0 0 1 26.52 0c2.14.62 4.26 1.41 6.29 2.34 2.03.93 4.01 2.01 5.89 3.22 1.88 1.2 3.69 2.56 5.38 4.02a48.2 48.2 0 0 1 4.74 4.74 47.61 47.61 0 0 1 4.03 5.37c1.2 1.88 2.29 3.86 3.21 5.89a47.095 47.095 0 0 1 3.78 12.85c.32 2.21.4 5.58.48 6.69.08 1.12.08-1.11 0 0"/></g><g stroke-linecap="round"><path fill="#b71c1c" fill-rule="evenodd" d="m207.167 309.602 34.33 37-34.33 35.41-35-35.41"/><path fill="none" stroke="transparent" d="M207.167 309.602c13.56 14.62 27.12 29.23 34.33 37m-34.33-37c11.97 12.9 23.94 25.81 34.33 37m0 0c-8.77 9.04-17.53 18.08-34.33 35.41m34.33-35.41c-9.44 9.74-18.88 19.47-34.33 35.41m0 0c-12.41-12.56-24.82-25.11-35-35.41m35 35.41c-13.19-13.34-26.38-26.69-35-35.41m0 0c12.33-13.04 24.66-26.07 35-37m-35 37c10.96-11.59 21.93-23.18 35-37"/></g></svg>